<svg xmlns="http://www.w3.org/2000/svg" xmlns:xlink="http://www.w3.org/1999/xlink" viewBox="0 0 59.31 146.03"><defs><style>.cls-1{fill:url(#Áåçûìÿííûé_ãðàäèåíò_199);}.cls-2{fill:#06033e;opacity:0.4;}.cls-3{fill:url(#Áåçûìÿííûé_ãðàäèåíò_144);}.cls-4{fill:url(#Áåçûìÿííûé_ãðàäèåíò_483);}.cls-5{fill:url(#Áåçûìÿííûé_ãðàäèåíò_483-2);}.cls-6{fill:url(#Áåçûìÿííûé_ãðàäèåíò_193);}.cls-7{fill:url(#Áåçûìÿííûé_ãðàäèåíò_223);}.cls-12,.cls-8{fill:#fff;}.cls-9{fill:#0c0a78;}.cls-10{fill:url(#Áåçûìÿííûé_ãðàäèåíò_193-2);}.cls-11{fill:#e8975b;}.cls-12{opacity:0.5;}</style><radialGradient id="Áåçûìÿííûé_ãðàäèåíò_199" cx="-2.93" cy="90.12" r="165.35" gradientUnits="userSpaceOnUse"><stop offset="0" stop-color="#e39a65"/><stop offset="0.15" stop-color="#a92ffb"/><stop offset="0.41" stop-color="#3919bb"/><stop offset="0.93" stop-color="#3919bb"/></radialGradient><linearGradient id="Áåçûìÿííûé_ãðàäèåíò_144" y1="69.64" x2="59.31" y2="69.64" gradientUnits="userSpaceOnUse"><stop offset="0" stop-color="#e39a65"/><stop offset="0.25" stop-color="#a92ffb"/><stop offset="0.56" stop-color="#3919bb"/></linearGradient><linearGradient id="Áåçûìÿííûé_ãðàäèåíò_483" x1="5.56" y1="66.62" x2="53.75" y2="66.62" gradientUnits="userSpaceOnUse"><stop offset="0" stop-color="#4f1fec"/><stop offset="1" stop-color="#a92ffb"/></linearGradient><linearGradient id="Áåçûìÿííûé_ãðàäèåíò_483-2" x1="4.42" y1="66.62" x2="52.6" y2="66.62" xlink:href="#Áåçûìÿííûé_ãðàäèåíò_483"/><linearGradient id="Áåçûìÿííûé_ãðàäèåíò_193" x1="5.57" y1="60.27" x2="66.32" y2="60.27" gradientUnits="userSpaceOnUse"><stop offset="0" stop-color="#131060"/><stop offset="0.19" stop-color="#141062"/><stop offset="0.28" stop-color="#19106a"/><stop offset="0.36" stop-color="#221078"/><stop offset="0.42" stop-color="#2e0f8b"/><stop offset="0.48" stop-color="#3e0fa3"/><stop offset="0.54" stop-color="#510ec2"/><stop offset="0.58" stop-color="#680de5"/><stop offset="0.61" stop-color="#740df8"/><stop offset="0.62" stop-color="#7a14f0"/><stop offset="0.68" stop-color="#9b3cc3"/><stop offset="0.75" stop-color="#b75d9d"/><stop offset="0.81" stop-color="#cc7680"/><stop offset="0.88" stop-color="#dc886c"/><stop offset="0.94" stop-color="#e5935f"/><stop offset="1" stop-color="#e8975b"/></linearGradient><radialGradient id="Áåçûìÿííûé_ãðàäèåíò_223" cx="-7.4" cy="52.86" r="108.16" gradientUnits="userSpaceOnUse"><stop offset="0" stop-color="#e39a65"/><stop offset="0.25" stop-color="#a92ffb"/><stop offset="0.74" stop-color="#3919bb"/></radialGradient><linearGradient id="Áåçûìÿííûé_ãðàäèåíò_193-2" x1="25.84" y1="79.88" x2="34.24" y2="79.88" xlink:href="#Áåçûìÿííûé_ãðàäèåíò_193"/></defs><g id="Layer_2" data-name="Layer 2"><g id="Ñëîé_1" data-name="Ñëîé 1"><path class="cls-1" d="M57.62,72.32H1.68l5.21,60.57h0c0,3.36,2.22,6.72,6.66,9.29,8.9,5.13,23.31,5.13,32.2,0,4.45-2.57,6.67-5.93,6.67-9.29Z"/><path class="cls-2" d="M57.62,72.32H1.68l.86,10A22.06,22.06,0,0,0,7.72,87C18.41,94,36.05,95.4,48.09,90.3l-1.86,44.3a8.75,8.75,0,0,1-2,5.28c-1.82,2.13-5.31,4.64-12,6.06a31.53,31.53,0,0,0,13.54-3.76c4.45-2.57,6.67-5.93,6.67-9.29l4.17-48.58h0Z"/><ellipse class="cls-2" cx="29.65" cy="72.32" rx="27.97" ry="16.15"/><ellipse class="cls-2" cx="29.65" cy="66.62" rx="24.09" ry="13.91"/><path class="cls-3" d="M59.28,71.56h0v0s0-.06,0-.08L58.73,66l0,.07c-.24-4.11-3.07-8.17-8.49-11.31-11.36-6.55-29.77-6.55-41.13,0C3.53,58,.7,62.17.58,66.38v0L.07,71.19a2.45,2.45,0,0,0,0,.38v.08H0c-.3,4.6,2.58,9.26,8.66,12.77,11.58,6.69,30.36,6.69,42,0C56.75,80.88,59.63,76.18,59.28,71.56Z"/><ellipse class="cls-4" cx="29.65" cy="66.62" rx="24.09" ry="13.91"/><ellipse class="cls-5" cx="28.51" cy="66.62" rx="24.09" ry="13.91"/><path class="cls-2" d="M15.48,58.86c9.4-5.43,24.66-5.43,34.07,0l.33.22a18.8,18.8,0,0,0-3.19-2.29c-9.41-5.43-24.66-5.43-34.07,0s-9.39,14-.34,19.45C6.24,70.85,7.3,63.58,15.48,58.86Z"/><path class="cls-6" d="M12.62,59.2c9.41-5.43,24.66-5.43,34.07,0,4.17,2.41,6.49,5.48,7,8.63.59-3.95-1.72-8-7-11-9.41-5.43-24.66-5.43-34.07,0-5.24,3-7.56,7.09-7,11C6.13,64.68,8.45,61.61,12.62,59.2Z"/><path class="cls-7" d="M50.4,54.89c-11.34-6.68-29.82-6.84-41.28-.36S-2.43,71.68,8.91,78.36s29.82,6.84,41.28.36S61.74,61.57,50.4,54.89ZM46.69,76.46a31.4,31.4,0,0,1-11,3.61l-.43-1.44a1.37,1.37,0,0,0-1.32-1H25.33a1.37,1.37,0,0,0-1.32,1l-.44,1.44a31.41,31.41,0,0,1-11-3.61c-9.41-5.43-9.41-14.24,0-19.67s24.66-5.43,34.07,0S56.1,71,46.69,76.46Z"/><path class="cls-8" d="M46.69,55.76c-9.41-5.43-24.66-5.43-34.07,0-4.93,2.85-7.28,6.62-7,10.35.22-3.39,2.56-6.74,7-9.32,9.41-5.43,24.66-5.43,34.07,0,4.48,2.58,6.82,5.93,7,9.32C54,62.38,51.62,58.61,46.69,55.76Z"/><path class="cls-8" d="M50.19,77.69C38.73,84.17,20.25,84,8.91,77.33,3.51,74.15.71,70.07.49,66c-.23,4.45,2.57,9,8.42,12.4,11.34,6.68,29.82,6.84,41.28.36,6-3.4,8.88-7.94,8.63-12.46C58.61,70.43,55.74,74.55,50.19,77.69Z"/><rect class="cls-9" x="26.41" y="79.42" width="6.48" height="1.4" rx="0.65"/><path class="cls-10" d="M32.24,79.42H27.07a.66.66,0,0,0-.66.65v.1a.53.53,0,0,0,0,.17.65.65,0,0,1,.62-.48h5.17a.65.65,0,0,1,.62.48,1,1,0,0,0,0-.17v-.1A.65.65,0,0,0,32.24,79.42Z"/><path class="cls-11" d="M30.45,126.66a4.47,4.47,0,0,1-8.64-2.29c.63-2.39,2.88-3.06,5.27-2.43S31.08,124.28,30.45,126.66Z"/><path class="cls-11" d="M34,122a2,2,0,1,1-2.76-2.83c.9-.88,2.61-1.32,3.37-.54S34.86,121.08,34,122Z"/><path class="cls-11" d="M29.29,118.22a2,2,0,1,1-3.9-.7c.22-1.24,1.36-2.58,2.44-2.39S29.51,117,29.29,118.22Z"/><path class="cls-11" d="M23.53,117.64a2,2,0,1,1-3.66,1.51c-.48-1.16-.24-2.91.77-3.33S23.05,116.48,23.53,117.64Z"/><path class="cls-12" d="M31.49,80.12s15.64-5.24,9.3-23.21S22.13,33.46,27.1,19.08c0,0-7.79,11.64-.51,27.39s8.87,13.93,8.78,21.47A13.58,13.58,0,0,1,28,80.12Z"/><path class="cls-12" d="M32.89,21.58S31.26,10.83,41.35,0c0,0-8.92,19.92-6,29.75C35.35,29.75,33,23.5,32.89,21.58Z"/></g></g></svg>