<svg xmlns="http://www.w3.org/2000/svg" xmlns:xlink="http://www.w3.org/1999/xlink" viewBox="0 0 438.49 297.07"><defs><style>.cls-1{fill:url(#Áåçûìÿííûé_ãðàäèåíò_33);}.cls-2{fill:url(#Áåçûìÿííûé_ãðàäèåíò_33-2);}.cls-3{fill:url(#Áåçûìÿííûé_ãðàäèåíò_33-3);}.cls-4{fill:#020230;opacity:0.6;}.cls-5{fill:url(#Áåçûìÿííûé_ãðàäèåíò_33-4);}.cls-6{fill:url(#Áåçûìÿííûé_ãðàäèåíò_113);}.cls-7{fill:url(#Áåçûìÿííûé_ãðàäèåíò_109);}.cls-8{fill:url(#Áåçûìÿííûé_ãðàäèåíò_343);}.cls-9{fill:#fff;}.cls-10,.cls-14{opacity:0.4;}.cls-11,.cls-14,.cls-15{fill:#06033e;}.cls-12{fill:url(#Áåçûìÿííûé_ãðàäèåíò_343-2);}.cls-13{fill:url(#Áåçûìÿííûé_ãðàäèåíò_441);}.cls-15,.cls-17{opacity:0.5;}.cls-16{fill:url(#Áåçûìÿííûé_ãðàäèåíò_343-3);}.cls-18{fill:#e8975b;}.cls-19{fill:#f8359e;}</style><linearGradient id="Áåçûìÿííûé_ãðàäèåíò_33" x1="405.87" y1="241.65" x2="438.49" y2="241.65" gradientUnits="userSpaceOnUse"><stop offset="0" stop-color="#e39a65"/><stop offset="1" stop-color="#e95f8d"/></linearGradient><linearGradient id="Áåçûìÿííûé_ãðàäèåíò_33-2" x1="361.22" y1="196.96" x2="416" y2="196.96" xlink:href="#Áåçûìÿííûé_ãðàäèåíò_33"/><linearGradient id="Áåçûìÿííûé_ãðàäèåíò_33-3" x1="0" y1="215.31" x2="54.78" y2="215.31" xlink:href="#Áåçûìÿííûé_ãðàäèåíò_33"/><linearGradient id="Áåçûìÿííûé_ãðàäèåíò_33-4" x1="63.77" y1="211.8" x2="356.13" y2="211.8" xlink:href="#Áåçûìÿííûé_ãðàäèåíò_33"/><radialGradient id="Áåçûìÿííûé_ãðàäèåíò_113" cx="225.26" cy="-4.66" r="223.3" gradientUnits="userSpaceOnUse"><stop offset="0" stop-color="#e39a65"/><stop offset="0.47" stop-color="#a92ffb"/><stop offset="0.59" stop-color="#891cfb"/><stop offset="0.74" stop-color="#6507fa"/><stop offset="0.8" stop-color="#0d0c6f"/></radialGradient><radialGradient id="Áåçûìÿííûé_ãðàäèåíò_109" cx="88.69" cy="174.67" r="244.17" gradientUnits="userSpaceOnUse"><stop offset="0" stop-color="#e39a65"/><stop offset="0.47" stop-color="#a92ffb"/><stop offset="0.57" stop-color="#891cfb"/><stop offset="0.68" stop-color="#6507fa"/><stop offset="0.74" stop-color="#0d0c6f"/></radialGradient><radialGradient id="Áåçûìÿííûé_ãðàäèåíò_343" cx="111.15" cy="125.66" r="218.96" gradientUnits="userSpaceOnUse"><stop offset="0" stop-color="#e39a65"/><stop offset="0.47" stop-color="#a92ffb"/><stop offset="0.59" stop-color="#891cfb"/><stop offset="0.73" stop-color="#6507fa"/><stop offset="1" stop-color="#3919bb"/></radialGradient><radialGradient id="Áåçûìÿííûé_ãðàäèåíò_343-2" cx="165.69" cy="41.92" r="223.34" xlink:href="#Áåçûìÿííûé_ãðàäèåíò_343"/><linearGradient id="Áåçûìÿííûé_ãðàäèåíò_441" x1="190.24" y1="100.55" x2="369.21" y2="100.55" gradientUnits="userSpaceOnUse"><stop offset="0" stop-color="#3919bb"/><stop offset="1" stop-color="#6507fa"/></linearGradient><radialGradient id="Áåçûìÿííûé_ãðàäèåíò_343-3" cx="84.16" cy="-5.77" r="347.85" xlink:href="#Áåçûìÿííûé_ãðàäèåíò_343"/></defs><g id="Layer_2" data-name="Layer 2"><g id="Ñëîé_1" data-name="Ñëîé 1"><path class="cls-1" d="M422.18,251.24a7,7,0,0,1-3.48-.93L407,243.53a2.17,2.17,0,0,1,0-3.76L418.7,233a7,7,0,0,1,7,0l11.74,6.78a2.17,2.17,0,0,1,0,3.76l-11.74,6.78A7,7,0,0,1,422.18,251.24Zm0-17.32a5.13,5.13,0,0,0-2.55.68l-11.74,6.78a.32.32,0,0,0,0,.54l11.74,6.78h0a5.1,5.1,0,0,0,5.1,0l11.74-6.78a.32.32,0,0,0,0-.54l-11.74-6.78A5.15,5.15,0,0,0,422.18,233.92Z"/><path class="cls-2" d="M388.61,212.79a11.26,11.26,0,0,1-5.65-1.51l-20.2-11.66a3.07,3.07,0,0,1,0-5.32L383,182.64a11.31,11.31,0,0,1,11.31,0l20.2,11.66a3.08,3.08,0,0,1,0,5.32l-20.2,11.66A11.3,11.3,0,0,1,388.61,212.79Zm-4.72-3.12a9.49,9.49,0,0,0,9.45,0L413.54,198a1.22,1.22,0,0,0,0-2.1l-20.2-11.66a9.49,9.49,0,0,0-9.45,0l-20.2,11.66a1.21,1.21,0,0,0,0,2.1Z"/><path class="cls-3" d="M27.39,231.14a11.3,11.3,0,0,1-5.66-1.51L1.54,218a3.07,3.07,0,0,1,0-5.32L21.73,201A11.36,11.36,0,0,1,33,201l20.2,11.66a3.07,3.07,0,0,1,0,5.32L33,229.63A11.26,11.26,0,0,1,27.39,231.14Zm0-29.8a9.47,9.47,0,0,0-4.73,1.26L2.46,214.26a1.21,1.21,0,0,0,0,2.1L22.66,228h0a9.51,9.51,0,0,0,9.46,0l20.19-11.66a1.19,1.19,0,0,0,.61-1.05,1.17,1.17,0,0,0-.61-1L32.11,202.6A9.43,9.43,0,0,0,27.39,201.34Z"/><path class="cls-4" d="M231.94,282,87.5,198.63c-2.1-1.22-1.84-3.34.59-4.74l92.7-53.52c2.43-1.4,6.11-1.56,8.21-.34l144.43,83.39c2.11,1.21,1.85,3.33-.58,4.74l-92.7,53.52C237.72,283.08,234,283.23,231.94,282Z"/><path class="cls-5" d="M235.24,297.07A9.29,9.29,0,0,1,230.7,296h0L65.86,200.84a3.71,3.71,0,0,1-2.09-3.16c0-1.44,1-2.85,2.76-3.87L178.9,128c3.08-1.78,7.61-2,10.31-.39L354,222.76a3.68,3.68,0,0,1,2.09,3.15c0,1.45-1,2.86-2.76,3.87L241,295.61A11.75,11.75,0,0,1,235.24,297.07ZM184.68,128.39a10,10,0,0,0-4.85,1.2L67.47,195.42c-1.15.67-1.83,1.51-1.83,2.26a2,2,0,0,0,1.15,1.55l164.84,95.16h0c2.11,1.22,6,1,8.44-.38l112.37-65.84c1.15-.66,1.83-1.5,1.83-2.26a2,2,0,0,0-1.15-1.54L188.28,129.2A7.4,7.4,0,0,0,184.68,128.39Z"/><path class="cls-6" d="M371.8,83.62,227.94.56A3.71,3.71,0,0,0,225,.14h0l-2.66.93.94.22a4.65,4.65,0,0,0-.88,1.65L189.85,108.57a6.39,6.39,0,0,0,2.64,7.11l143.86,83a4.34,4.34,0,0,0,1.06.44l-.36.77,2.55-.89h0a4.09,4.09,0,0,0,2.32-2.69L374.44,90.72A6.35,6.35,0,0,0,371.8,83.62Z"/><path class="cls-7" d="M331.2,202.68l.05.06-142.09-82c-2.09-1.21-5.75-1.06-8.16.34L89.19,174l-3.06-1.17.86,4.3h0a2.61,2.61,0,0,0,1.38,1.72l143.41,82.79c2.09,1.21,5.75,1.06,8.16-.33l92-53.14a3.66,3.66,0,0,0,1.95-2.28h0l.88-4.18Z"/><path class="cls-8" d="M231.94,257.91,87.5,174.52c-2.1-1.22-1.84-3.34.59-4.74l92.7-53.52c2.43-1.4,6.11-1.56,8.21-.34l144.43,83.39c2.11,1.21,1.85,3.33-.58,4.74l-92.7,53.52C237.72,259,234,259.12,231.94,257.91Z"/><path class="cls-9" d="M332.84,202.92l-92.69,53.52c-2.43,1.4-6.11,1.56-8.21.34L87.5,173.39a2.71,2.71,0,0,1-1.31-1.49,2.25,2.25,0,0,0,1.31,2.62l144.44,83.39c2.1,1.21,5.78,1.06,8.21-.34l92.69-53.52c1.61-.93,2.25-2.16,1.91-3.25A3.8,3.8,0,0,1,332.84,202.92Z"/><g class="cls-10"><path class="cls-11" d="M156.4,161l-4.88-2.82c-.39-.22-.34-.62.11-.88l5.76-3.32a1.71,1.71,0,0,1,1.52-.07l4.88,2.82c.39.22.34.62-.11.88l-5.76,3.32A1.71,1.71,0,0,1,156.4,161Z"/><path class="cls-11" d="M163.93,165.33l-4.88-2.81c-.39-.23-.34-.62.11-.88l5.76-3.33a1.7,1.7,0,0,1,1.52-.06l4.88,2.82c.39.22.34.62-.11.88l-5.76,3.32A1.67,1.67,0,0,1,163.93,165.33Z"/><path class="cls-11" d="M171.46,169.68l-4.88-2.81c-.39-.23-.34-.62.11-.89l5.76-3.32a1.67,1.67,0,0,1,1.52-.06l4.88,2.81c.39.23.34.62-.11.89L173,169.62A1.67,1.67,0,0,1,171.46,169.68Z"/><path class="cls-11" d="M181.87,166.09,177,163.28c-.4-.23-.35-.62.11-.89l4.83-2.78a1.67,1.67,0,0,1,1.52-.07l4.88,2.82c.39.22.34.62-.11.88L183.4,166A1.69,1.69,0,0,1,181.87,166.09Z"/><path class="cls-11" d="M189.4,170.44l-4.87-2.82c-.4-.22-.35-.62.11-.88l4.83-2.79a1.67,1.67,0,0,1,1.52-.06l4.88,2.81c.39.23.34.63-.11.89l-4.83,2.79A1.69,1.69,0,0,1,189.4,170.44Z"/><path class="cls-11" d="M196.93,174.79,192.06,172c-.4-.22-.35-.62.11-.88L197,168.3a1.67,1.67,0,0,1,1.52-.06l4.88,2.81c.39.23.34.62-.11.88l-4.83,2.79A1.73,1.73,0,0,1,196.93,174.79Z"/><path class="cls-11" d="M204.46,179.13l-4.87-2.81c-.4-.23-.35-.62.11-.88l4.83-2.79a1.71,1.71,0,0,1,1.52-.07l4.88,2.82c.39.23.34.62-.11.88L206,179.07A1.69,1.69,0,0,1,204.46,179.13Z"/><path class="cls-11" d="M212,183.48l-4.87-2.81c-.4-.23-.35-.62.11-.89l4.83-2.78a1.69,1.69,0,0,1,1.53-.07l4.87,2.82c.39.22.34.62-.11.88l-4.83,2.79A1.69,1.69,0,0,1,212,183.48Z"/><path class="cls-11" d="M219.52,187.83,214.65,185c-.39-.22-.35-.62.11-.88l4.83-2.79a1.69,1.69,0,0,1,1.53-.06L226,184.1c.39.22.34.62-.11.88l-4.83,2.79A1.69,1.69,0,0,1,219.52,187.83Z"/><path class="cls-11" d="M227.05,192.18l-4.87-2.82c-.39-.22-.35-.62.11-.88l4.83-2.79a1.69,1.69,0,0,1,1.53-.06l4.87,2.81c.39.23.34.62-.11.88l-4.83,2.79A1.7,1.7,0,0,1,227.05,192.18Z"/><path class="cls-11" d="M234.58,196.52l-4.87-2.81c-.39-.23-.35-.62.11-.88l4.83-2.79a1.69,1.69,0,0,1,1.53-.06l4.87,2.81c.39.23.34.62-.11.88l-4.83,2.79A1.69,1.69,0,0,1,234.58,196.52Z"/><path class="cls-11" d="M242.11,200.87l-4.87-2.81c-.39-.23-.34-.62.11-.88l4.83-2.79a1.69,1.69,0,0,1,1.53-.07l4.87,2.82c.39.22.34.62-.11.88l-4.83,2.79A1.69,1.69,0,0,1,242.11,200.87Z"/><path class="cls-11" d="M249.64,205.22l-4.87-2.82c-.39-.22-.34-.62.11-.88l4.83-2.79a1.69,1.69,0,0,1,1.53-.06l4.87,2.82c.39.22.34.62-.11.88l-4.83,2.79A1.69,1.69,0,0,1,249.64,205.22Z"/><path class="cls-11" d="M193,164l-4.88-2.81c-.39-.23-.34-.62.11-.88l4.83-2.79a1.73,1.73,0,0,1,1.53-.07l4.88,2.82c.39.22.34.62-.11.88L194.49,164A1.67,1.67,0,0,1,193,164Z"/><path class="cls-11" d="M185.32,159.62l-4.87-2.81c-.39-.23-.34-.63.11-.89l4.83-2.79a1.69,1.69,0,0,1,1.53-.06l4.87,2.82c.39.22.35.62-.11.88l-4.83,2.79A1.69,1.69,0,0,1,185.32,159.62Z"/><path class="cls-11" d="M177.67,155.2l-10.5-6.06c-.39-.23-.35-.62.11-.88l4.83-2.79a1.73,1.73,0,0,1,1.53-.07l10.5,6.07c.39.22.34.62-.11.88l-4.83,2.79A1.69,1.69,0,0,1,177.67,155.2Z"/><path class="cls-11" d="M183,149.83l-8.52-4.92c-.39-.23-.35-.63.11-.89l4.83-2.79a1.72,1.72,0,0,1,1.53-.06l8.52,4.92c.39.23.34.62-.11.88l-4.83,2.79A1.73,1.73,0,0,1,183,149.83Z"/><path class="cls-11" d="M200.5,168.38l-4.88-2.81c-.39-.23-.34-.63.11-.89l4.83-2.79a1.72,1.72,0,0,1,1.53-.06l4.88,2.82c.39.22.34.62-.11.88L202,168.32A1.67,1.67,0,0,1,200.5,168.38Z"/><path class="cls-11" d="M208,172.73l-4.88-2.82c-.39-.22-.34-.62.11-.88l4.83-2.79a1.69,1.69,0,0,1,1.53-.06L214.5,169c.39.23.34.62-.11.89l-4.84,2.79A1.7,1.7,0,0,1,208,172.73Z"/><path class="cls-11" d="M215.56,177.08l-4.88-2.82c-.39-.23-.34-.62.11-.88l4.83-2.79a1.69,1.69,0,0,1,1.53-.06l4.88,2.81c.39.23.34.62-.11.88L217.09,177A1.73,1.73,0,0,1,215.56,177.08Z"/><path class="cls-11" d="M223.09,181.42l-4.88-2.81c-.39-.23-.34-.62.11-.88l4.83-2.79a1.73,1.73,0,0,1,1.53-.07l4.88,2.82c.39.23.34.62-.11.88l-4.83,2.79A1.69,1.69,0,0,1,223.09,181.42Z"/><path class="cls-11" d="M230.62,185.77,225.74,183c-.39-.23-.34-.62.11-.89l4.83-2.79a1.73,1.73,0,0,1,1.53-.06l4.88,2.82c.39.22.34.62-.11.88l-4.83,2.79A1.69,1.69,0,0,1,230.62,185.77Z"/><path class="cls-11" d="M238.15,190.12l-4.88-2.82c-.39-.22-.34-.62.11-.88l4.83-2.79a1.69,1.69,0,0,1,1.53-.06l4.88,2.81c.39.23.34.63-.11.89l-4.83,2.79A1.69,1.69,0,0,1,238.15,190.12Z"/><path class="cls-11" d="M245.68,194.47l-4.88-2.82c-.39-.22-.34-.62.11-.88l4.83-2.79a1.69,1.69,0,0,1,1.53-.06l4.88,2.81c.39.23.34.62-.11.88l-4.83,2.79A1.73,1.73,0,0,1,245.68,194.47Z"/><path class="cls-11" d="M253.21,198.81,248.33,196c-.39-.23-.34-.62.11-.88l4.83-2.79a1.73,1.73,0,0,1,1.53-.07l4.88,2.82c.39.23.34.62-.11.88l-4.83,2.79A1.69,1.69,0,0,1,253.21,198.81Z"/><path class="cls-11" d="M260.74,203.16l-4.88-2.81c-.39-.23-.34-.62.11-.89l4.83-2.78a1.7,1.7,0,0,1,1.53-.07l4.88,2.82c.39.22.34.62-.11.88l-4.83,2.79A1.69,1.69,0,0,1,260.74,203.16Z"/><path class="cls-11" d="M274.13,210.89l-10.64-6.14c-.39-.23-.35-.62.11-.88l4.83-2.79A1.73,1.73,0,0,1,270,201l10.64,6.15c.39.22.34.62-.11.88l-4.84,2.79A1.67,1.67,0,0,1,274.13,210.89Z"/><path class="cls-11" d="M288.79,202.43l-9-5.19c-.39-.22-.35-.62.11-.88l4.83-2.79a1.69,1.69,0,0,1,1.53-.06l9,5.18c.39.23.34.62-.11.88l-4.84,2.79A1.71,1.71,0,0,1,288.79,202.43Z"/><path class="cls-11" d="M213.68,167.53l-4.87-2.81c-.39-.23-.34-.63.11-.89l4.83-2.79a1.69,1.69,0,0,1,1.53-.06l4.87,2.82c.39.22.35.62-.11.88l-4.83,2.79A1.69,1.69,0,0,1,213.68,167.53Z"/><path class="cls-11" d="M206,163.07l-4.88-2.81c-.39-.23-.34-.62.11-.88l4.83-2.79a1.73,1.73,0,0,1,1.53-.07l4.88,2.82c.39.23.34.62-.11.88L207.49,163A1.67,1.67,0,0,1,206,163.07Z"/><path class="cls-11" d="M198.25,158.62l-4.88-2.82c-.39-.22-.34-.62.11-.88l4.83-2.79a1.69,1.69,0,0,1,1.53-.06l4.88,2.81c.39.23.34.63-.11.89l-4.83,2.79A1.73,1.73,0,0,1,198.25,158.62Z"/><path class="cls-11" d="M190.53,154.16l-4.87-2.81c-.4-.23-.35-.62.11-.88l4.83-2.79a1.71,1.71,0,0,1,1.52-.07l4.88,2.82c.39.22.34.62-.11.88l-4.83,2.79A1.69,1.69,0,0,1,190.53,154.16Z"/><path class="cls-11" d="M221.21,171.88l-4.87-2.82c-.39-.22-.34-.62.11-.88l4.83-2.79a1.69,1.69,0,0,1,1.53-.06l4.87,2.81c.39.23.35.62-.11.89l-4.83,2.78A1.69,1.69,0,0,1,221.21,171.88Z"/><path class="cls-11" d="M228.74,176.23l-4.87-2.82c-.39-.23-.34-.62.11-.88l4.83-2.79a1.69,1.69,0,0,1,1.53-.06l4.87,2.81c.39.23.35.62-.11.88l-4.83,2.79A1.73,1.73,0,0,1,228.74,176.23Z"/><path class="cls-11" d="M236.28,180.57l-4.88-2.81c-.39-.23-.34-.62.11-.88l4.83-2.79a1.73,1.73,0,0,1,1.53-.07l4.87,2.82c.4.22.35.62-.11.88l-4.83,2.79A1.67,1.67,0,0,1,236.28,180.57Z"/><path class="cls-11" d="M243.81,184.92l-4.88-2.81c-.39-.23-.34-.63.11-.89l4.83-2.79a1.69,1.69,0,0,1,1.53-.06l4.87,2.82c.4.22.35.62-.11.88l-4.83,2.79A1.67,1.67,0,0,1,243.81,184.92Z"/><path class="cls-11" d="M251.34,189.27l-4.88-2.82c-.39-.22-.34-.62.11-.88l4.83-2.79a1.69,1.69,0,0,1,1.53-.06l4.87,2.81c.4.23.35.62-.11.89l-4.83,2.79A1.7,1.7,0,0,1,251.34,189.27Z"/><path class="cls-11" d="M258.87,193.62,254,190.8c-.39-.23-.34-.62.11-.88l4.83-2.79a1.69,1.69,0,0,1,1.53-.06l4.87,2.81c.4.23.35.62-.11.88l-4.83,2.79A1.71,1.71,0,0,1,258.87,193.62Z"/><path class="cls-11" d="M266.4,198l-4.88-2.81c-.39-.23-.34-.62.11-.88l4.83-2.79a1.73,1.73,0,0,1,1.53-.07l4.87,2.82c.4.22.35.62-.1.88l-4.84,2.79A1.67,1.67,0,0,1,266.4,198Z"/><path class="cls-11" d="M273.93,202.31l-4.88-2.81c-.39-.23-.34-.62.11-.89l4.83-2.79a1.72,1.72,0,0,1,1.53-.06l4.88,2.82c.39.22.34.62-.11.88l-4.84,2.79A1.67,1.67,0,0,1,273.93,202.31Z"/><path class="cls-11" d="M281.46,206.66l-4.88-2.82c-.39-.22-.34-.62.11-.88l4.83-2.79a1.69,1.69,0,0,1,1.53-.06l4.88,2.81c.39.23.34.62-.11.89L283,206.6A1.7,1.7,0,0,1,281.46,206.66Z"/><path class="cls-11" d="M209.72,156.78,204.84,154c-.39-.22-.34-.62.11-.88l4.83-2.79a1.69,1.69,0,0,1,1.53-.06l4.88,2.81c.39.23.34.62-.11.88l-4.83,2.79A1.73,1.73,0,0,1,209.72,156.78Z"/><path class="cls-11" d="M202.23,152.45l-4.88-2.81c-.39-.23-.34-.63.11-.89l4.83-2.79a1.69,1.69,0,0,1,1.53-.06l4.87,2.82c.4.22.35.62-.1.88l-4.84,2.79A1.67,1.67,0,0,1,202.23,152.45Z"/><path class="cls-11" d="M194.73,148.12l-4.87-2.81c-.39-.23-.35-.62.11-.88l4.83-2.79a1.73,1.73,0,0,1,1.53-.07l4.87,2.82c.39.23.34.62-.11.88l-4.83,2.79A1.69,1.69,0,0,1,194.73,148.12Z"/><path class="cls-11" d="M187.24,143.8,182.36,141c-.39-.22-.34-.62.11-.88l4.84-2.79a1.67,1.67,0,0,1,1.52-.06l4.88,2.81c.39.23.34.63-.11.89l-4.83,2.79A1.72,1.72,0,0,1,187.24,143.8Z"/><path class="cls-11" d="M195,139.35l-4.88-2.81c-.39-.23-.34-.63.11-.89l1.6-.92a1.67,1.67,0,0,1,1.52-.06l4.88,2.81c.39.23.34.62-.11.89l-1.6.92A1.67,1.67,0,0,1,195,139.35Z"/><path class="cls-11" d="M204.72,145l-4.87-2.82c-.39-.23-.34-.62.11-.88l1.59-.92a1.73,1.73,0,0,1,1.53-.07l4.88,2.82c.39.22.34.62-.11.88l-1.6.92A1.73,1.73,0,0,1,204.72,145Z"/><path class="cls-11" d="M212.19,149.3l-4.88-2.81c-.39-.23-.34-.62.11-.88l1.6-.93a1.7,1.7,0,0,1,1.52-.06l4.88,2.82c.39.22.34.62-.11.88l-1.6.92A1.67,1.67,0,0,1,212.19,149.3Z"/><path class="cls-11" d="M219.65,153.61l-4.88-2.81c-.39-.23-.34-.62.11-.89l1.6-.92a1.67,1.67,0,0,1,1.52-.06l4.88,2.81c.39.23.34.63-.11.89l-1.6.92A1.67,1.67,0,0,1,219.65,153.61Z"/><path class="cls-11" d="M227.11,157.92l-4.88-2.82c-.39-.22-.34-.62.11-.88l1.6-.92a1.69,1.69,0,0,1,1.53-.06l4.87,2.81c.39.23.35.62-.11.88l-1.59.93A1.69,1.69,0,0,1,227.11,157.92Z"/><path class="cls-11" d="M268.77,182l-4.88-2.81c-.39-.23-.34-.63.11-.89l1.6-.92a1.67,1.67,0,0,1,1.52-.06L272,180.1c.39.23.34.62-.11.88l-1.6.93A1.67,1.67,0,0,1,268.77,182Z"/><path class="cls-11" d="M276.23,186.28l-4.88-2.82c-.39-.22-.34-.62.11-.88l1.6-.92a1.69,1.69,0,0,1,1.53-.06l4.87,2.81c.39.23.34.62-.11.88l-1.6.92A1.67,1.67,0,0,1,276.23,186.28Z"/><path class="cls-11" d="M283.69,190.59l-4.88-2.82c-.39-.23-.34-.62.11-.88l1.6-.92a1.73,1.73,0,0,1,1.53-.07l4.87,2.82c.39.22.35.62-.11.88l-1.59.92A1.73,1.73,0,0,1,283.69,190.59Z"/><path class="cls-11" d="M291.15,194.89l-4.88-2.81c-.39-.23-.34-.62.11-.88l1.6-.93a1.72,1.72,0,0,1,1.53-.06l4.87,2.82c.4.22.35.62-.11.88l-1.59.92A1.69,1.69,0,0,1,291.15,194.89Z"/><path class="cls-11" d="M217.25,161.12l-4.88-2.81c-.39-.23-.34-.62.11-.88l4.83-2.79a1.73,1.73,0,0,1,1.53-.07l4.88,2.82c.39.23.34.62-.11.88l-4.83,2.79A1.69,1.69,0,0,1,217.25,161.12Z"/><path class="cls-11" d="M224.78,165.47l-4.88-2.81c-.39-.23-.34-.62.11-.89l4.83-2.78a1.7,1.7,0,0,1,1.53-.07l4.88,2.82c.39.22.34.62-.11.88l-4.83,2.79A1.69,1.69,0,0,1,224.78,165.47Z"/><path class="cls-11" d="M232.31,169.82,227.43,167c-.39-.22-.34-.62.11-.88l4.83-2.79a1.69,1.69,0,0,1,1.53-.06l4.88,2.81c.39.23.34.63-.11.89l-4.83,2.79A1.69,1.69,0,0,1,232.31,169.82Z"/><path class="cls-11" d="M239.84,174.17,235,171.35c-.39-.22-.34-.62.11-.88l4.84-2.79a1.67,1.67,0,0,1,1.52-.06l4.88,2.81c.39.23.34.62-.11.88l-4.83,2.79A1.73,1.73,0,0,1,239.84,174.17Z"/><path class="cls-11" d="M247.37,178.51l-4.88-2.81c-.39-.23-.34-.62.11-.88l4.84-2.79A1.71,1.71,0,0,1,249,172l4.88,2.82c.39.23.34.62-.11.88l-4.83,2.79A1.69,1.69,0,0,1,247.37,178.51Z"/><path class="cls-11" d="M254.9,182.86,250,180.05c-.39-.23-.34-.62.11-.88l4.84-2.79a1.67,1.67,0,0,1,1.52-.07l4.88,2.82c.39.22.34.62-.11.88l-4.83,2.79A1.69,1.69,0,0,1,254.9,182.86Z"/><path class="cls-11" d="M262.43,187.21l-4.88-2.82c-.39-.22-.34-.62.11-.88l4.84-2.79a1.67,1.67,0,0,1,1.52-.06l4.88,2.82c.39.22.34.62-.11.88L264,187.15A1.69,1.69,0,0,1,262.43,187.21Z"/><path class="cls-11" d="M270,191.56l-4.87-2.82c-.4-.22-.35-.62.1-.88l4.84-2.79a1.67,1.67,0,0,1,1.52-.06l4.88,2.81c.39.23.34.62-.11.88l-4.83,2.79A1.7,1.7,0,0,1,270,191.56Z"/><path class="cls-11" d="M277.49,195.91l-4.87-2.82c-.4-.23-.35-.62.11-.88l4.83-2.79a1.67,1.67,0,0,1,1.52-.06l4.88,2.81c.39.23.34.62-.11.88L279,195.84A1.73,1.73,0,0,1,277.49,195.91Z"/><path class="cls-11" d="M174.2,161.66l-14.36-8.29c-.39-.23-.35-.62.11-.88l4.83-2.79a1.69,1.69,0,0,1,1.53-.06l14.36,8.29c.39.22.34.62-.11.88l-4.83,2.79A1.69,1.69,0,0,1,174.2,161.66Z"/><path class="cls-11" d="M266.71,215.07l-14.36-8.29c-.39-.22-.34-.62.11-.88l4.83-2.79a1.69,1.69,0,0,1,1.53-.06l14.36,8.29c.39.22.34.62-.11.88L268.24,215A1.69,1.69,0,0,1,266.71,215.07Z"/><path class="cls-11" d="M236.59,207.29l-4.87-2.82c-.39-.22-.34-.62.11-.88l5.75-3.32a1.69,1.69,0,0,1,1.53-.06L244,203c.39.23.34.62-.11.88l-5.76,3.33A1.69,1.69,0,0,1,236.59,207.29Z"/><path class="cls-11" d="M181.91,175.72l-7.8-4.51c-.39-.22-.34-.62.11-.88L180,167a1.67,1.67,0,0,1,1.52-.06l7.8,4.5c.39.22.34.62-.11.88l-5.75,3.32A1.73,1.73,0,0,1,181.91,175.72Z"/><path class="cls-11" d="M229.34,203.1l-7.8-4.5c-.39-.23-.34-.62.11-.88l5.76-3.33a1.67,1.67,0,0,1,1.52-.06l7.8,4.5c.39.23.34.62-.11.88L230.87,203A1.69,1.69,0,0,1,229.34,203.1Z"/><path class="cls-11" d="M192.77,182l-7.79-4.5c-.4-.23-.35-.62.11-.88l5.75-3.33a1.69,1.69,0,0,1,1.53-.06l7.8,4.5c.39.23.34.62-.11.88l-5.76,3.33A1.69,1.69,0,0,1,192.77,182Z"/><path class="cls-11" d="M192.42,173.25l33.91,19.57c.42.25.42.64,0,.88l-5.87,3.39a1.65,1.65,0,0,1-1.53,0L185,177.52Z"/><path class="cls-11" d="M257.64,215.17l5.43,3.14c.32.18.28.51-.09.72l-2.35,1.36a1.38,1.38,0,0,1-1.25.05l-5.44-3.13c-.32-.19-.28-.51.09-.73l2.36-1.36A1.42,1.42,0,0,1,257.64,215.17Z"/><path class="cls-11" d="M250.05,210.79l5.43,3.13c.32.19.28.51-.09.73L253,216a1.42,1.42,0,0,1-1.25.05l-5.43-3.14c-.32-.18-.28-.51.09-.72l2.36-1.36A1.38,1.38,0,0,1,250.05,210.79Z"/><path class="cls-11" d="M242.52,206.44l5.43,3.14c.32.18.28.51-.09.72l-2.36,1.36a1.38,1.38,0,0,1-1.25.05l-5.43-3.14c-.32-.18-.28-.5.09-.72l2.36-1.36A1.42,1.42,0,0,1,242.52,206.44Z"/><path class="cls-11" d="M254.21,208.39l5.43,3.13c.32.19.28.51-.09.73l-2.36,1.36a1.42,1.42,0,0,1-1.25,0l-5.43-3.14c-.32-.18-.28-.51.09-.72l2.35-1.36A1.4,1.4,0,0,1,254.21,208.39Z"/></g><g class="cls-10"><path class="cls-11" d="M156.4,161l-4.88-2.82c-.39-.22-.34-.62.11-.88l5.76-3.32a1.71,1.71,0,0,1,1.52-.07l4.88,2.82c.39.22.34.62-.11.88l-5.76,3.32A1.71,1.71,0,0,1,156.4,161Z"/><path class="cls-11" d="M163.93,165.33l-4.88-2.81c-.39-.23-.34-.62.11-.88l5.76-3.33a1.7,1.7,0,0,1,1.52-.06l4.88,2.82c.39.22.34.62-.11.88l-5.76,3.32A1.67,1.67,0,0,1,163.93,165.33Z"/><path class="cls-11" d="M171.46,169.68l-4.88-2.81c-.39-.23-.34-.62.11-.89l5.76-3.32a1.67,1.67,0,0,1,1.52-.06l4.88,2.81c.39.23.34.62-.11.89L173,169.62A1.67,1.67,0,0,1,171.46,169.68Z"/><path class="cls-11" d="M181.87,166.09,177,163.28c-.4-.23-.35-.62.11-.89l4.83-2.78a1.67,1.67,0,0,1,1.52-.07l4.88,2.82c.39.22.34.62-.11.88L183.4,166A1.69,1.69,0,0,1,181.87,166.09Z"/><path class="cls-11" d="M189.4,170.44l-4.87-2.82c-.4-.22-.35-.62.11-.88l4.83-2.79a1.67,1.67,0,0,1,1.52-.06l4.88,2.81c.39.23.34.63-.11.89l-4.83,2.79A1.69,1.69,0,0,1,189.4,170.44Z"/><path class="cls-11" d="M196.93,174.79,192.06,172c-.4-.22-.35-.62.11-.88L197,168.3a1.67,1.67,0,0,1,1.52-.06l4.88,2.81c.39.23.34.62-.11.88l-4.83,2.79A1.73,1.73,0,0,1,196.93,174.79Z"/><path class="cls-11" d="M204.46,179.13l-4.87-2.81c-.4-.23-.35-.62.11-.88l4.83-2.79a1.71,1.71,0,0,1,1.52-.07l4.88,2.82c.39.23.34.62-.11.88L206,179.07A1.69,1.69,0,0,1,204.46,179.13Z"/><path class="cls-11" d="M212,183.48l-4.87-2.81c-.4-.23-.35-.62.11-.89l4.83-2.78a1.69,1.69,0,0,1,1.53-.07l4.87,2.82c.39.22.34.62-.11.88l-4.83,2.79A1.69,1.69,0,0,1,212,183.48Z"/><path class="cls-11" d="M219.52,187.83,214.65,185c-.39-.22-.35-.62.11-.88l4.83-2.79a1.69,1.69,0,0,1,1.53-.06L226,184.1c.39.22.34.62-.11.88l-4.83,2.79A1.69,1.69,0,0,1,219.52,187.83Z"/><path class="cls-11" d="M227.05,192.18l-4.87-2.82c-.39-.22-.35-.62.11-.88l4.83-2.79a1.69,1.69,0,0,1,1.53-.06l4.87,2.81c.39.23.34.62-.11.88l-4.83,2.79A1.7,1.7,0,0,1,227.05,192.18Z"/><path class="cls-11" d="M234.58,196.52l-4.87-2.81c-.39-.23-.35-.62.11-.88l4.83-2.79a1.69,1.69,0,0,1,1.53-.06l4.87,2.81c.39.23.34.62-.11.88l-4.83,2.79A1.69,1.69,0,0,1,234.58,196.52Z"/><path class="cls-11" d="M242.11,200.87l-4.87-2.81c-.39-.23-.34-.62.11-.88l4.83-2.79a1.69,1.69,0,0,1,1.53-.07l4.87,2.82c.39.22.34.62-.11.88l-4.83,2.79A1.69,1.69,0,0,1,242.11,200.87Z"/><path class="cls-11" d="M249.64,205.22l-4.87-2.82c-.39-.22-.34-.62.11-.88l4.83-2.79a1.69,1.69,0,0,1,1.53-.06l4.87,2.82c.39.22.34.62-.11.88l-4.83,2.79A1.69,1.69,0,0,1,249.64,205.22Z"/><path class="cls-11" d="M193,164l-4.88-2.81c-.39-.23-.34-.62.11-.88l4.83-2.79a1.73,1.73,0,0,1,1.53-.07l4.88,2.82c.39.22.34.62-.11.88L194.49,164A1.67,1.67,0,0,1,193,164Z"/><path class="cls-11" d="M185.32,159.62l-4.87-2.81c-.39-.23-.34-.63.11-.89l4.83-2.79a1.69,1.69,0,0,1,1.53-.06l4.87,2.82c.39.22.35.62-.11.88l-4.83,2.79A1.69,1.69,0,0,1,185.32,159.62Z"/><path class="cls-11" d="M177.67,155.2l-10.5-6.06c-.39-.23-.35-.62.11-.88l4.83-2.79a1.73,1.73,0,0,1,1.53-.07l10.5,6.07c.39.22.34.62-.11.88l-4.83,2.79A1.69,1.69,0,0,1,177.67,155.2Z"/><path class="cls-11" d="M183,149.83l-8.52-4.92c-.39-.23-.35-.63.11-.89l4.83-2.79a1.72,1.72,0,0,1,1.53-.06l8.52,4.92c.39.23.34.62-.11.88l-4.83,2.79A1.73,1.73,0,0,1,183,149.83Z"/><path class="cls-11" d="M200.5,168.38l-4.88-2.81c-.39-.23-.34-.63.11-.89l4.83-2.79a1.72,1.72,0,0,1,1.53-.06l4.88,2.82c.39.22.34.62-.11.88L202,168.32A1.67,1.67,0,0,1,200.5,168.38Z"/><path class="cls-11" d="M208,172.73l-4.88-2.82c-.39-.22-.34-.62.11-.88l4.83-2.79a1.69,1.69,0,0,1,1.53-.06L214.5,169c.39.23.34.62-.11.89l-4.84,2.79A1.7,1.7,0,0,1,208,172.73Z"/><path class="cls-11" d="M215.56,177.08l-4.88-2.82c-.39-.23-.34-.62.11-.88l4.83-2.79a1.69,1.69,0,0,1,1.53-.06l4.88,2.81c.39.23.34.62-.11.88L217.09,177A1.73,1.73,0,0,1,215.56,177.08Z"/><path class="cls-11" d="M223.09,181.42l-4.88-2.81c-.39-.23-.34-.62.11-.88l4.83-2.79a1.73,1.73,0,0,1,1.53-.07l4.88,2.82c.39.23.34.62-.11.88l-4.83,2.79A1.69,1.69,0,0,1,223.09,181.42Z"/><path class="cls-11" d="M230.62,185.77,225.74,183c-.39-.23-.34-.62.11-.89l4.83-2.79a1.73,1.73,0,0,1,1.53-.06l4.88,2.82c.39.22.34.62-.11.88l-4.83,2.79A1.69,1.69,0,0,1,230.62,185.77Z"/><path class="cls-11" d="M238.15,190.12l-4.88-2.82c-.39-.22-.34-.62.11-.88l4.83-2.79a1.69,1.69,0,0,1,1.53-.06l4.88,2.81c.39.23.34.63-.11.89l-4.83,2.79A1.69,1.69,0,0,1,238.15,190.12Z"/><path class="cls-11" d="M245.68,194.47l-4.88-2.82c-.39-.22-.34-.62.11-.88l4.83-2.79a1.69,1.69,0,0,1,1.53-.06l4.88,2.81c.39.23.34.62-.11.88l-4.83,2.79A1.73,1.73,0,0,1,245.68,194.47Z"/><path class="cls-11" d="M253.21,198.81,248.33,196c-.39-.23-.34-.62.11-.88l4.83-2.79a1.73,1.73,0,0,1,1.53-.07l4.88,2.82c.39.23.34.62-.11.88l-4.83,2.79A1.69,1.69,0,0,1,253.21,198.81Z"/><path class="cls-11" d="M260.74,203.16l-4.88-2.81c-.39-.23-.34-.62.11-.89l4.83-2.78a1.7,1.7,0,0,1,1.53-.07l4.88,2.82c.39.22.34.62-.11.88l-4.83,2.79A1.69,1.69,0,0,1,260.74,203.16Z"/><path class="cls-11" d="M274.13,210.89l-10.64-6.14c-.39-.23-.35-.62.11-.88l4.83-2.79A1.73,1.73,0,0,1,270,201l10.64,6.15c.39.22.34.62-.11.88l-4.84,2.79A1.67,1.67,0,0,1,274.13,210.89Z"/><path class="cls-11" d="M288.79,202.43l-9-5.19c-.39-.22-.35-.62.11-.88l4.83-2.79a1.69,1.69,0,0,1,1.53-.06l9,5.18c.39.23.34.62-.11.88l-4.84,2.79A1.71,1.71,0,0,1,288.79,202.43Z"/><path class="cls-11" d="M213.68,167.53l-4.87-2.81c-.39-.23-.34-.63.11-.89l4.83-2.79a1.69,1.69,0,0,1,1.53-.06l4.87,2.82c.39.22.35.62-.11.88l-4.83,2.79A1.69,1.69,0,0,1,213.68,167.53Z"/><path class="cls-11" d="M206,163.07l-4.88-2.81c-.39-.23-.34-.62.11-.88l4.83-2.79a1.73,1.73,0,0,1,1.53-.07l4.88,2.82c.39.23.34.62-.11.88L207.49,163A1.67,1.67,0,0,1,206,163.07Z"/><path class="cls-11" d="M198.25,158.62l-4.88-2.82c-.39-.22-.34-.62.11-.88l4.83-2.79a1.69,1.69,0,0,1,1.53-.06l4.88,2.81c.39.23.34.63-.11.89l-4.83,2.79A1.73,1.73,0,0,1,198.25,158.62Z"/><path class="cls-11" d="M190.53,154.16l-4.87-2.81c-.4-.23-.35-.62.11-.88l4.83-2.79a1.71,1.71,0,0,1,1.52-.07l4.88,2.82c.39.22.34.62-.11.88l-4.83,2.79A1.69,1.69,0,0,1,190.53,154.16Z"/><path class="cls-11" d="M221.21,171.88l-4.87-2.82c-.39-.22-.34-.62.11-.88l4.83-2.79a1.69,1.69,0,0,1,1.53-.06l4.87,2.81c.39.23.35.62-.11.89l-4.83,2.78A1.69,1.69,0,0,1,221.21,171.88Z"/><path class="cls-11" d="M228.74,176.23l-4.87-2.82c-.39-.23-.34-.62.11-.88l4.83-2.79a1.69,1.69,0,0,1,1.53-.06l4.87,2.81c.39.23.35.62-.11.88l-4.83,2.79A1.73,1.73,0,0,1,228.74,176.23Z"/><path class="cls-11" d="M236.28,180.57l-4.88-2.81c-.39-.23-.34-.62.11-.88l4.83-2.79a1.73,1.73,0,0,1,1.53-.07l4.87,2.82c.4.22.35.62-.11.88l-4.83,2.79A1.67,1.67,0,0,1,236.28,180.57Z"/><path class="cls-11" d="M243.81,184.92l-4.88-2.81c-.39-.23-.34-.63.11-.89l4.83-2.79a1.69,1.69,0,0,1,1.53-.06l4.87,2.82c.4.22.35.62-.11.88l-4.83,2.79A1.67,1.67,0,0,1,243.81,184.92Z"/><path class="cls-11" d="M251.34,189.27l-4.88-2.82c-.39-.22-.34-.62.11-.88l4.83-2.79a1.69,1.69,0,0,1,1.53-.06l4.87,2.81c.4.23.35.62-.11.89l-4.83,2.79A1.7,1.7,0,0,1,251.34,189.27Z"/><path class="cls-11" d="M258.87,193.62,254,190.8c-.39-.23-.34-.62.11-.88l4.83-2.79a1.69,1.69,0,0,1,1.53-.06l4.87,2.81c.4.23.35.62-.11.88l-4.83,2.79A1.71,1.71,0,0,1,258.87,193.62Z"/><path class="cls-11" d="M266.4,198l-4.88-2.81c-.39-.23-.34-.62.11-.88l4.83-2.79a1.73,1.73,0,0,1,1.53-.07l4.87,2.82c.4.22.35.62-.1.88l-4.84,2.79A1.67,1.67,0,0,1,266.4,198Z"/><path class="cls-11" d="M273.93,202.31l-4.88-2.81c-.39-.23-.34-.62.11-.89l4.83-2.79a1.72,1.72,0,0,1,1.53-.06l4.88,2.82c.39.22.34.62-.11.88l-4.84,2.79A1.67,1.67,0,0,1,273.93,202.31Z"/><path class="cls-11" d="M281.46,206.66l-4.88-2.82c-.39-.22-.34-.62.11-.88l4.83-2.79a1.69,1.69,0,0,1,1.53-.06l4.88,2.81c.39.23.34.62-.11.89L283,206.6A1.7,1.7,0,0,1,281.46,206.66Z"/><path class="cls-11" d="M209.72,156.78,204.84,154c-.39-.22-.34-.62.11-.88l4.83-2.79a1.69,1.69,0,0,1,1.53-.06l4.88,2.81c.39.23.34.62-.11.88l-4.83,2.79A1.73,1.73,0,0,1,209.72,156.78Z"/><path class="cls-11" d="M202.23,152.45l-4.88-2.81c-.39-.23-.34-.63.11-.89l4.83-2.79a1.69,1.69,0,0,1,1.53-.06l4.87,2.82c.4.22.35.62-.1.88l-4.84,2.79A1.67,1.67,0,0,1,202.23,152.45Z"/><path class="cls-11" d="M194.73,148.12l-4.87-2.81c-.39-.23-.35-.62.11-.88l4.83-2.79a1.73,1.73,0,0,1,1.53-.07l4.87,2.82c.39.23.34.62-.11.88l-4.83,2.79A1.69,1.69,0,0,1,194.73,148.12Z"/><path class="cls-11" d="M187.24,143.8,182.36,141c-.39-.22-.34-.62.11-.88l4.84-2.79a1.67,1.67,0,0,1,1.52-.06l4.88,2.81c.39.23.34.63-.11.89l-4.83,2.79A1.72,1.72,0,0,1,187.24,143.8Z"/><path class="cls-11" d="M195,139.35l-4.88-2.81c-.39-.23-.34-.63.11-.89l1.6-.92a1.67,1.67,0,0,1,1.52-.06l4.88,2.81c.39.23.34.62-.11.89l-1.6.92A1.67,1.67,0,0,1,195,139.35Z"/><path class="cls-11" d="M204.72,145l-4.87-2.82c-.39-.23-.34-.62.11-.88l1.59-.92a1.73,1.73,0,0,1,1.53-.07l4.88,2.82c.39.22.34.62-.11.88l-1.6.92A1.73,1.73,0,0,1,204.72,145Z"/><path class="cls-11" d="M212.19,149.3l-4.88-2.81c-.39-.23-.34-.62.11-.88l1.6-.93a1.7,1.7,0,0,1,1.52-.06l4.88,2.82c.39.22.34.62-.11.88l-1.6.92A1.67,1.67,0,0,1,212.19,149.3Z"/><path class="cls-11" d="M219.65,153.61l-4.88-2.81c-.39-.23-.34-.62.11-.89l1.6-.92a1.67,1.67,0,0,1,1.52-.06l4.88,2.81c.39.23.34.63-.11.89l-1.6.92A1.67,1.67,0,0,1,219.65,153.61Z"/><path class="cls-11" d="M227.11,157.92l-4.88-2.82c-.39-.22-.34-.62.11-.88l1.6-.92a1.69,1.69,0,0,1,1.53-.06l4.87,2.81c.39.23.35.62-.11.88l-1.59.93A1.69,1.69,0,0,1,227.11,157.92Z"/><path class="cls-11" d="M268.77,182l-4.88-2.81c-.39-.23-.34-.63.11-.89l1.6-.92a1.67,1.67,0,0,1,1.52-.06L272,180.1c.39.23.34.62-.11.88l-1.6.93A1.67,1.67,0,0,1,268.77,182Z"/><path class="cls-11" d="M276.23,186.28l-4.88-2.82c-.39-.22-.34-.62.11-.88l1.6-.92a1.69,1.69,0,0,1,1.53-.06l4.87,2.81c.39.23.34.62-.11.88l-1.6.92A1.67,1.67,0,0,1,276.23,186.28Z"/><path class="cls-11" d="M283.69,190.59l-4.88-2.82c-.39-.23-.34-.62.11-.88l1.6-.92a1.73,1.73,0,0,1,1.53-.07l4.87,2.82c.39.22.35.62-.11.88l-1.59.92A1.73,1.73,0,0,1,283.69,190.59Z"/><path class="cls-11" d="M291.15,194.89l-4.88-2.81c-.39-.23-.34-.62.11-.88l1.6-.93a1.72,1.72,0,0,1,1.53-.06l4.87,2.82c.4.22.35.62-.11.88l-1.59.92A1.69,1.69,0,0,1,291.15,194.89Z"/><path class="cls-11" d="M217.25,161.12l-4.88-2.81c-.39-.23-.34-.62.11-.88l4.83-2.79a1.73,1.73,0,0,1,1.53-.07l4.88,2.82c.39.23.34.62-.11.88l-4.83,2.79A1.69,1.69,0,0,1,217.25,161.12Z"/><path class="cls-11" d="M224.78,165.47l-4.88-2.81c-.39-.23-.34-.62.11-.89l4.83-2.78a1.7,1.7,0,0,1,1.53-.07l4.88,2.82c.39.22.34.62-.11.88l-4.83,2.79A1.69,1.69,0,0,1,224.78,165.47Z"/><path class="cls-11" d="M232.31,169.82,227.43,167c-.39-.22-.34-.62.11-.88l4.83-2.79a1.69,1.69,0,0,1,1.53-.06l4.88,2.81c.39.23.34.63-.11.89l-4.83,2.79A1.69,1.69,0,0,1,232.31,169.82Z"/><path class="cls-11" d="M239.84,174.17,235,171.35c-.39-.22-.34-.62.11-.88l4.84-2.79a1.67,1.67,0,0,1,1.52-.06l4.88,2.81c.39.23.34.62-.11.88l-4.83,2.79A1.73,1.73,0,0,1,239.84,174.17Z"/><path class="cls-11" d="M247.37,178.51l-4.88-2.81c-.39-.23-.34-.62.11-.88l4.84-2.79A1.71,1.71,0,0,1,249,172l4.88,2.82c.39.23.34.62-.11.88l-4.83,2.79A1.69,1.69,0,0,1,247.37,178.51Z"/><path class="cls-11" d="M254.9,182.86,250,180.05c-.39-.23-.34-.62.11-.88l4.84-2.79a1.67,1.67,0,0,1,1.52-.07l4.88,2.82c.39.22.34.62-.11.88l-4.83,2.79A1.69,1.69,0,0,1,254.9,182.86Z"/><path class="cls-11" d="M262.43,187.21l-4.88-2.82c-.39-.22-.34-.62.11-.88l4.84-2.79a1.67,1.67,0,0,1,1.52-.06l4.88,2.82c.39.22.34.62-.11.88L264,187.15A1.69,1.69,0,0,1,262.43,187.21Z"/><path class="cls-11" d="M270,191.56l-4.87-2.82c-.4-.22-.35-.62.1-.88l4.84-2.79a1.67,1.67,0,0,1,1.52-.06l4.88,2.81c.39.23.34.62-.11.88l-4.83,2.79A1.7,1.7,0,0,1,270,191.56Z"/><path class="cls-11" d="M277.49,195.91l-4.87-2.82c-.4-.23-.35-.62.11-.88l4.83-2.79a1.67,1.67,0,0,1,1.52-.06l4.88,2.81c.39.23.34.62-.11.88L279,195.84A1.73,1.73,0,0,1,277.49,195.91Z"/><path class="cls-11" d="M174.2,161.66l-14.36-8.29c-.39-.23-.35-.62.11-.88l4.83-2.79a1.69,1.69,0,0,1,1.53-.06l14.36,8.29c.39.22.34.62-.11.88l-4.83,2.79A1.69,1.69,0,0,1,174.2,161.66Z"/><path class="cls-11" d="M266.71,215.07l-14.36-8.29c-.39-.22-.34-.62.11-.88l4.83-2.79a1.69,1.69,0,0,1,1.53-.06l14.36,8.29c.39.22.34.62-.11.88L268.24,215A1.69,1.69,0,0,1,266.71,215.07Z"/><path class="cls-11" d="M236.59,207.29l-4.87-2.82c-.39-.22-.34-.62.11-.88l5.75-3.32a1.69,1.69,0,0,1,1.53-.06L244,203c.39.23.34.62-.11.88l-5.76,3.33A1.69,1.69,0,0,1,236.59,207.29Z"/><path class="cls-11" d="M181.91,175.72l-7.8-4.51c-.39-.22-.34-.62.11-.88L180,167a1.67,1.67,0,0,1,1.52-.06l7.8,4.5c.39.22.34.62-.11.88l-5.75,3.32A1.73,1.73,0,0,1,181.91,175.72Z"/><path class="cls-11" d="M229.34,203.1l-7.8-4.5c-.39-.23-.34-.62.11-.88l5.76-3.33a1.67,1.67,0,0,1,1.52-.06l7.8,4.5c.39.23.34.62-.11.88L230.87,203A1.69,1.69,0,0,1,229.34,203.1Z"/><path class="cls-11" d="M192.77,182l-7.79-4.5c-.4-.23-.35-.62.11-.88l5.75-3.33a1.69,1.69,0,0,1,1.53-.06l7.8,4.5c.39.23.34.62-.11.88l-5.76,3.33A1.69,1.69,0,0,1,192.77,182Z"/><path class="cls-11" d="M192.42,173.25l33.91,19.57c.42.25.42.64,0,.88l-5.87,3.39a1.65,1.65,0,0,1-1.53,0L185,177.52Z"/><path class="cls-11" d="M257.64,215.17l5.43,3.14c.32.18.28.51-.09.72l-2.35,1.36a1.38,1.38,0,0,1-1.25.05l-5.44-3.13c-.32-.19-.28-.51.09-.73l2.36-1.36A1.42,1.42,0,0,1,257.64,215.17Z"/><path class="cls-11" d="M250.05,210.79l5.43,3.13c.32.19.28.51-.09.73L253,216a1.42,1.42,0,0,1-1.25.05l-5.43-3.14c-.32-.18-.28-.51.09-.72l2.36-1.36A1.38,1.38,0,0,1,250.05,210.79Z"/><path class="cls-11" d="M242.52,206.44l5.43,3.14c.32.18.28.51-.09.72l-2.36,1.36a1.38,1.38,0,0,1-1.25.05l-5.43-3.14c-.32-.18-.28-.5.09-.72l2.36-1.36A1.42,1.42,0,0,1,242.52,206.44Z"/><path class="cls-11" d="M254.21,208.39l5.43,3.13c.32.19.28.51-.09.73l-2.36,1.36a1.42,1.42,0,0,1-1.25,0l-5.43-3.14c-.32-.18-.28-.51.09-.72l2.35-1.36A1.4,1.4,0,0,1,254.21,208.39Z"/></g><path class="cls-12" d="M333.9,199.59,190,116.53a6.38,6.38,0,0,1-2.64-7.1L219.94,3.79c.8-2.62,3.29-3.68,5.55-2.37L369.35,84.47A6.36,6.36,0,0,1,372,91.58L339.46,197.21C338.65,199.83,336.16,200.9,333.9,199.59Z"/><path class="cls-13" d="M332.54,195.89,193,115.26a6.09,6.09,0,0,1-2.53-6.8l31.11-101C222.36,5,224.74,4,226.9,5.2L366.44,85.83a6.08,6.08,0,0,1,2.52,6.8l-31.1,101A3.54,3.54,0,0,1,332.54,195.89Z"/><path class="cls-14" d="M332.54,195.89,193,115.26a6.09,6.09,0,0,1-2.53-6.8l31.11-101C222.36,5,224.74,4,226.9,5.2L366.44,85.83a6.08,6.08,0,0,1,2.52,6.8l-31.1,101A3.54,3.54,0,0,1,332.54,195.89Z"/><path class="cls-14" d="M332.54,195.89,193,115.26a6.09,6.09,0,0,1-2.53-6.8l31.11-101C222.36,5,224.74,4,226.9,5.2L366.44,85.83a6.08,6.08,0,0,1,2.52,6.8l-31.1,101A3.54,3.54,0,0,1,332.54,195.89Z"/><path class="cls-15" d="M325.05,165,230.59,110.5a4.18,4.18,0,0,1-1.73-4.67l21.36-69.36a2.42,2.42,0,0,1,3.65-1.56l94.46,54.54a4.17,4.17,0,0,1,1.73,4.66L328.7,163.47A2.43,2.43,0,0,1,325.05,165Z"/><path class="cls-16" d="M312.29,166.71l-94.46-54.54a4.19,4.19,0,0,1-1.74-4.67l21.37-69.35a2.42,2.42,0,0,1,3.64-1.57l94.46,54.54a4.18,4.18,0,0,1,1.73,4.67l-21.36,69.36A2.42,2.42,0,0,1,312.29,166.71Z"/><g class="cls-17"><path class="cls-11" d="M312.29,166.71l-94.46-54.54a4.19,4.19,0,0,1-1.74-4.67l21.37-69.35a2.42,2.42,0,0,1,3.64-1.57l94.46,54.54a4.18,4.18,0,0,1,1.73,4.67l-21.36,69.36A2.42,2.42,0,0,1,312.29,166.71Z"/></g><path class="cls-9" d="M335.56,91.12,241.1,36.58a2.36,2.36,0,0,0-2.65.09,2.58,2.58,0,0,1,1.36.35l94.46,54.54A4.19,4.19,0,0,1,336,96.23l-21.36,69.36a2.88,2.88,0,0,1-1,1.47,2.49,2.49,0,0,0,2.28-1.91l21.36-69.36A4.18,4.18,0,0,0,335.56,91.12Z"/><path class="cls-14" d="M193.15,223.34a7.1,7.1,0,0,1-3.5-.82h0L151.8,200.68a2.74,2.74,0,0,1-1.55-2.34,3.58,3.58,0,0,1,2.09-2.89l19.48-11.25c2.38-1.37,5.87-1.51,8-.3l37.85,21.85a2.71,2.71,0,0,1,1.55,2.33,3.59,3.59,0,0,1-2.08,2.89l-19.48,11.25A9.23,9.23,0,0,1,193.15,223.34Zm-16.86-39.16a8.11,8.11,0,0,0-3.93,1L152.88,196.4c-1,.56-1.54,1.27-1.54,1.94a1.73,1.73,0,0,0,1,1.39l37.85,21.85c1.71,1,4.85.85,6.86-.31L216.54,210c1-.56,1.54-1.27,1.54-1.94a1.73,1.73,0,0,0-1-1.39l-37.84-21.85A6.08,6.08,0,0,0,176.29,184.18Z"/><path class="cls-9" d="M261,74.16l-5.84-3.37a1.51,1.51,0,0,1-.65-1.68h0a.86.86,0,0,1,1.31-.55l5.84,3.37a1.53,1.53,0,0,1,.65,1.68h0A.86.86,0,0,1,261,74.16Z"/><path class="cls-9" d="M274.93,82.19l-8.61-5a1.51,1.51,0,0,1-.65-1.68h0A.86.86,0,0,1,267,75l8.61,5a1.54,1.54,0,0,1,.65,1.68h0A.86.86,0,0,1,274.93,82.19Z"/><path class="cls-9" d="M249.24,100.16l-5.84-3.37a1.54,1.54,0,0,1-.65-1.68h0a.86.86,0,0,1,1.31-.55l5.84,3.37a1.53,1.53,0,0,1,.65,1.68h0A.86.86,0,0,1,249.24,100.16Z"/><path class="cls-9" d="M261.64,107.32l-8.61-5a1.54,1.54,0,0,1-.65-1.68h0a.86.86,0,0,1,1.31-.55l8.61,5a1.53,1.53,0,0,1,.65,1.68h0A.87.87,0,0,1,261.64,107.32Z"/><path class="cls-9" d="M243.52,69.52l-3.65-2.1a1.53,1.53,0,0,1-.65-1.68h0a.87.87,0,0,1,1.32-.55l3.65,2.11a1.53,1.53,0,0,1,.65,1.68h0A.87.87,0,0,1,243.52,69.52Z"/><path class="cls-9" d="M254.5,81.33l-11.15-6.44a1.53,1.53,0,0,1-.65-1.68h0a.87.87,0,0,1,1.32-.54l11.14,6.43a1.51,1.51,0,0,1,.65,1.68h0A.86.86,0,0,1,254.5,81.33Z"/><path class="cls-9" d="M244.22,86.33l-3.65-2.11a1.53,1.53,0,0,1-.65-1.68h0a.87.87,0,0,1,1.31-.55l3.65,2.11a1.52,1.52,0,0,1,.65,1.68h0A.87.87,0,0,1,244.22,86.33Z"/><path class="cls-9" d="M263,119l-9.74-5.63a1.53,1.53,0,0,1-.65-1.68h0a.87.87,0,0,1,1.31-.55l9.75,5.63a1.53,1.53,0,0,1,.65,1.68h0A.88.88,0,0,1,263,119Z"/><path class="cls-9" d="M240.13,94.9l-2.34-1.35a1.54,1.54,0,0,1-.65-1.68h0a.86.86,0,0,1,1.31-.55l2.34,1.35a1.51,1.51,0,0,1,.65,1.68h0A.86.86,0,0,1,240.13,94.9Z"/><path class="cls-9" d="M237.91,104.55l-2.9-1.68a1.5,1.5,0,0,1-.65-1.68h0a.86.86,0,0,1,1.31-.54l2.91,1.68a1.53,1.53,0,0,1,.65,1.68h0A.87.87,0,0,1,237.91,104.55Z"/><path class="cls-9" d="M249.23,111.08l-7.67-4.42a1.54,1.54,0,0,1-.65-1.68h0a.86.86,0,0,1,1.31-.55l7.67,4.43a1.53,1.53,0,0,1,.65,1.68h0A.86.86,0,0,1,249.23,111.08Z"/><path class="cls-9" d="M239.13,110.72l-5.52-3.18a1.52,1.52,0,0,1-.64-1.68h0a.86.86,0,0,1,1.31-.55l5.51,3.18a1.54,1.54,0,0,1,.65,1.68h0A.86.86,0,0,1,239.13,110.72Z"/><path class="cls-9" d="M271.34,123.88l-3.54-2a1.53,1.53,0,0,1-.65-1.68h0a.87.87,0,0,1,1.32-.54l3.54,2a1.53,1.53,0,0,1,.65,1.68h0A.88.88,0,0,1,271.34,123.88Z"/><path class="cls-9" d="M257.79,94.16l-9.74-5.62a1.51,1.51,0,0,1-.65-1.68h0a.86.86,0,0,1,1.31-.55l9.74,5.63a1.5,1.5,0,0,1,.65,1.67h0A.86.86,0,0,1,257.79,94.16Z"/><path class="cls-18" d="M258.94,89.36l-17-9.8a1.54,1.54,0,0,1-.65-1.68h0a.87.87,0,0,1,1.32-.55l17,9.81a1.52,1.52,0,0,1,.65,1.67h0A.87.87,0,0,1,258.94,89.36Z"/><path class="cls-18" d="M248.92,94.51l-9.74-5.63a1.53,1.53,0,0,1-.65-1.68h0a.86.86,0,0,1,1.31-.54l9.75,5.62a1.54,1.54,0,0,1,.65,1.68h0A.87.87,0,0,1,248.92,94.51Z"/><path class="cls-18" d="M265.18,98.43l-3.54-2.05A1.53,1.53,0,0,1,261,94.7h0a.86.86,0,0,1,1.31-.54l3.54,2a1.5,1.5,0,0,1,.65,1.68h0A.86.86,0,0,1,265.18,98.43Z"/><path class="cls-18" d="M301.19,97.35l-21-12.1a1.5,1.5,0,0,1-.65-1.68h0a.86.86,0,0,1,1.31-.55l21,12.11a1.5,1.5,0,0,1,.65,1.68h0A.86.86,0,0,1,301.19,97.35Z"/><path class="cls-19" d="M248.11,105,236.4,98.21a1.51,1.51,0,0,1-.65-1.68h0a.87.87,0,0,1,1.31-.55l11.71,6.77a1.5,1.5,0,0,1,.65,1.68h0A.86.86,0,0,1,248.11,105Z"/><path class="cls-19" d="M249.88,67.73l-8.61-5a1.49,1.49,0,0,1-.65-1.67h0a.86.86,0,0,1,1.31-.55l8.61,5a1.53,1.53,0,0,1,.65,1.68h0A.87.87,0,0,1,249.88,67.73Z"/><path class="cls-18" d="M237.33,115.15l-10-5.76a1.53,1.53,0,0,1-.65-1.68h0a.87.87,0,0,1,1.32-.55l10,5.76a1.53,1.53,0,0,1,.65,1.68h0A.87.87,0,0,1,237.33,115.15Z"/><path class="cls-9" d="M302,82.36l-4.27-2.46a1.12,1.12,0,0,1-.48-1.23h0a.63.63,0,0,1,1-.4l4.27,2.46A1.12,1.12,0,0,1,303,82h0A.63.63,0,0,1,302,82.36Z"/><path class="cls-9" d="M310.18,87.06l-4.27-2.46a1.1,1.1,0,0,1-.47-1.23h0a.63.63,0,0,1,1-.4l4.26,2.47a1.1,1.1,0,0,1,.48,1.22h0A.63.63,0,0,1,310.18,87.06Z"/><path class="cls-9" d="M318.32,91.76l-4.27-2.46a1.12,1.12,0,0,1-.47-1.23h0a.63.63,0,0,1,1-.4l4.27,2.47a1.12,1.12,0,0,1,.47,1.22h0A.63.63,0,0,1,318.32,91.76Z"/><path class="cls-19" d="M322.32,94.08l-.13-.08a1.13,1.13,0,0,1-.47-1.23h0a.63.63,0,0,1,1-.4l.13.08a1.12,1.12,0,0,1,.47,1.23h0A.63.63,0,0,1,322.32,94.08Z"/></g></g></svg>